<svg width="48" height="48" viewBox="0 0 48 48" fill="none" xmlns="http://www.w3.org/2000/svg">
<path fill-rule="evenodd" clip-rule="evenodd" d="M32 22.0001C32 27.523 27.5228 32.0001 22 32.0001C16.4772 32.0001 12 27.523 12 22.0001C12 16.4773 16.4772 12.0001 22 12.0001C27.5228 12.0001 32 16.4773 32 22.0001ZM30.4001 33.201C28.0603 34.9586 25.1518 36.0001 22 36.0001C14.268 36.0001 8 29.7321 8 22.0001C8 14.2681 14.268 8.00012 22 8.00012C29.732 8.00012 36 14.2681 36 22.0001C36 25.152 34.9584 28.0607 33.2007 30.4006C33.2403 30.4304 33.2791 30.4619 33.317 30.4951L41.317 37.4951C42.1483 38.2224 42.2325 39.486 41.5052 40.3172C40.7778 41.1485 39.5143 41.2327 38.683 40.5054L30.683 33.5054C30.5764 33.4121 30.482 33.3099 30.4001 33.201Z" fill="white"/>
</svg>
